<svg width="15" height="15" viewBox="0 0 15 15" fill="none" xmlns="http://www.w3.org/2000/svg">
<path d="M7.26111 15C6.77703 15 6.28929 14.9449 5.79788 14.8348C5.30648 14.7247 4.80407 14.5668 4.29065 14.3612C4.46668 12.5844 4.98009 10.925 5.83089 9.38317C6.68168 7.84129 7.77452 6.48297 9.10939 5.30821C7.49581 6.13054 6.0986 7.2172 4.91775 8.56818C3.7369 9.91915 2.91178 11.461 2.44237 13.1938C2.3837 13.1497 2.32869 13.102 2.27735 13.0506C2.22601 12.9992 2.171 12.9442 2.11232 12.8854C1.42288 12.1953 0.89847 11.4243 0.539082 10.5726C0.179694 9.72091 0 8.8325 0 7.90737C0 6.90882 0.19803 5.95433 0.594091 5.04389C0.990151 4.13345 1.54023 3.3258 2.24434 2.62094C3.43252 1.43149 4.97276 0.656885 6.86505 0.297114C8.75733 -0.0626567 11.4124 -0.0956969 14.8303 0.197994C15.0943 3.7076 15.0503 6.38385 14.6982 8.22676C14.3462 10.0697 13.5834 11.5785 12.4099 12.7533C11.6911 13.4728 10.888 14.0271 10.0005 14.4163C9.11306 14.8054 8.19992 15 7.26111 15Z" fill="#536251"/>
</svg>
