<svg width="36" height="40" viewBox="0 0 36 40" fill="none" xmlns="http://www.w3.org/2000/svg">
<path d="M18 24C17.4333 24 16.9583 23.8083 16.575 23.425C16.1917 23.0417 16 22.5667 16 22C16 21.4333 16.1917 20.9583 16.575 20.575C16.9583 20.1917 17.4333 20 18 20C18.5667 20 19.0417 20.1917 19.425 20.575C19.8083 20.9583 20 21.4333 20 22C20 22.5667 19.8083 23.0417 19.425 23.425C19.0417 23.8083 18.5667 24 18 24ZM10 24C9.43333 24 8.95833 23.8083 8.575 23.425C8.19167 23.0417 8 22.5667 8 22C8 21.4333 8.19167 20.9583 8.575 20.575C8.95833 20.1917 9.43333 20 10 20C10.5667 20 11.0417 20.1917 11.425 20.575C11.8083 20.9583 12 21.4333 12 22C12 22.5667 11.8083 23.0417 11.425 23.425C11.0417 23.8083 10.5667 24 10 24ZM26 24C25.4333 24 24.9583 23.8083 24.575 23.425C24.1917 23.0417 24 22.5667 24 22C24 21.4333 24.1917 20.9583 24.575 20.575C24.9583 20.1917 25.4333 20 26 20C26.5667 20 27.0417 20.1917 27.425 20.575C27.8083 20.9583 28 21.4333 28 22C28 22.5667 27.8083 23.0417 27.425 23.425C27.0417 23.8083 26.5667 24 26 24ZM18 32C17.4333 32 16.9583 31.8083 16.575 31.425C16.1917 31.0417 16 30.5667 16 30C16 29.4333 16.1917 28.9583 16.575 28.575C16.9583 28.1917 17.4333 28 18 28C18.5667 28 19.0417 28.1917 19.425 28.575C19.8083 28.9583 20 29.4333 20 30C20 30.5667 19.8083 31.0417 19.425 31.425C19.0417 31.8083 18.5667 32 18 32ZM10 32C9.43333 32 8.95833 31.8083 8.575 31.425C8.19167 31.0417 8 30.5667 8 30C8 29.4333 8.19167 28.9583 8.575 28.575C8.95833 28.1917 9.43333 28 10 28C10.5667 28 11.0417 28.1917 11.425 28.575C11.8083 28.9583 12 29.4333 12 30C12 30.5667 11.8083 31.0417 11.425 31.425C11.0417 31.8083 10.5667 32 10 32ZM26 32C25.4333 32 24.9583 31.8083 24.575 31.425C24.1917 31.0417 24 30.5667 24 30C24 29.4333 24.1917 28.9583 24.575 28.575C24.9583 28.1917 25.4333 28 26 28C26.5667 28 27.0417 28.1917 27.425 28.575C27.8083 28.9583 28 29.4333 28 30C28 30.5667 27.8083 31.0417 27.425 31.425C27.0417 31.8083 26.5667 32 26 32ZM4 40C2.9 40 1.95833 39.6083 1.175 38.825C0.391667 38.0417 0 37.1 0 36V8C0 6.9 0.391667 5.95833 1.175 5.175C1.95833 4.39167 2.9 4 4 4H6V0H10V4H26V0H30V4H32C33.1 4 34.0417 4.39167 34.825 5.175C35.6083 5.95833 36 6.9 36 8V36C36 37.1 35.6083 38.0417 34.825 38.825C34.0417 39.6083 33.1 40 32 40H4ZM4 36H32V16H4V36Z" fill="#536251"/>
</svg>
